<svg xmlns="http://www.w3.org/2000/svg" width="600" height="400" viewBox="0 0 600 400" fill="none">
  <rect width="600" height="400" fill="#F3F4F6"/>
  <rect x="50" y="50" width="500" height="300" rx="8" fill="white" stroke="#E5E7EB" stroke-width="2"/>
  <path d="M150 100H450" stroke="#E5E7EB" stroke-width="2" stroke-linecap="round"/>
  <path d="M150 140H450" stroke="#E5E7EB" stroke-width="2" stroke-linecap="round"/>
  <path d="M150 180H450" stroke="#E5E7EB" stroke-width="2" stroke-linecap="round"/>
  <path d="M150 220H350" stroke="#E5E7EB" stroke-width="2" stroke-linecap="round"/>
  <path d="M150 260H400" stroke="#E5E7EB" stroke-width="2" stroke-linecap="round"/>
  <path d="M150 300H300" stroke="#E5E7EB" stroke-width="2" stroke-linecap="round"/>
  
  <rect x="100" y="100" width="30" height="30" rx="4" fill="#4F46E5" fill-opacity="0.2" stroke="#4F46E5" stroke-width="2"/>
  <rect x="100" y="140" width="30" height="30" rx="4" fill="#4F46E5" fill-opacity="0.2" stroke="#4F46E5" stroke-width="2"/>
  <rect x="100" y="180" width="30" height="30" rx="4" fill="#4F46E5" fill-opacity="0.2" stroke="#4F46E5" stroke-width="2"/>
  <rect x="100" y="220" width="30" height="30" rx="4" fill="#4F46E5" fill-opacity="0.2" stroke="#4F46E5" stroke-width="2"/>
  <rect x="100" y="260" width="30" height="30" rx="4" fill="#4F46E5" fill-opacity="0.2" stroke="#4F46E5" stroke-width="2"/>
  <rect x="100" y="300" width="30" height="30" rx="4" fill="#4F46E5" fill-opacity="0.2" stroke="#4F46E5" stroke-width="2"/>
  
  <path d="M500 100L480 120M480 100L500 120" stroke="#4F46E5" stroke-width="2" stroke-linecap="round"/>
  <path d="M500 180L480 200M480 180L500 200" stroke="#4F46E5" stroke-width="2" stroke-linecap="round"/>
  <path d="M500 260L480 280M480 260L500 280" stroke="#4F46E5" stroke-width="2" stroke-linecap="round"/>
  
  <path d="M490 140L480 150L490 160" stroke="#4F46E5" stroke-width="2" stroke-linecap="round" stroke-linejoin="round"/>
  <path d="M490 220L480 230L490 240" stroke="#4F46E5" stroke-width="2" stroke-linecap="round" stroke-linejoin="round"/>
  <path d="M490 300L480 310L490 320" stroke="#4F46E5" stroke-width="2" stroke-linecap="round" stroke-linejoin="round"/>
  
  <text x="300" y="370" font-family="sans-serif" font-size="14" fill="#6B7280" text-anchor="middle">Handwritten Notes to Digital Documents</text>
</svg>